<?xml version="1.0" standalone="no"?>
<!DOCTYPE svg PUBLIC "-//W3C//DTD SVG 20010904//EN"
 "http://www.w3.org/TR/2001/REC-SVG-20010904/DTD/svg10.dtd">
<svg version="1.0" xmlns="http://www.w3.org/2000/svg"
 width="512.000000pt" height="512.000000pt" viewBox="0 0 512.000000 512.000000"
 preserveAspectRatio="xMidYMid meet">
<metadata>
Created by potrace 1.14, written by Peter Selinger 2001-2017
</metadata>
<g transform="translate(0.000000,512.000000) scale(0.100000,-0.100000)"
fill="#000000" stroke="none">
<path d="M2286 5111 c-3 -4 -38 -11 -78 -15 -40 -4 -86 -11 -103 -16 -16 -5
-66 -17 -110 -26 -84 -17 -226 -56 -285 -79 -315 -121 -526 -239 -757 -424
-98 -78 -315 -296 -399 -401 -50 -62 -126 -174 -202 -295 -52 -84 -145 -285
-207 -445 -45 -116 -109 -383 -121 -498 -3 -40 -11 -75 -15 -78 -12 -7 -12
-541 0 -548 4 -3 11 -38 15 -78 4 -40 11 -86 16 -103 5 -16 17 -66 26 -110 17
-84 56 -226 79 -285 62 -160 155 -361 207 -445 142 -228 225 -334 396 -506
283 -285 548 -454 962 -614 59 -23 200 -62 285 -80 44 -9 96 -20 115 -25 180
-46 720 -46 900 0 19 5 71 16 115 25 85 18 226 57 285 80 314 121 526 239 756
423 102 81 311 291 397 399 54 67 132 181 205 298 52 84 145 285 207 445 23
59 62 200 80 285 9 44 20 96 25 115 46 180 46 720 0 900 -5 19 -16 71 -25 115
-18 85 -57 226 -80 285 -62 160 -155 361 -207 445 -142 228 -225 334 -396 506
-283 285 -548 454 -962 614 -116 45 -383 109 -498 121 -40 3 -75 11 -78 15 -3
5 -126 9 -274 9 -148 0 -271 -4 -274 -9z m503 -1446 c143 -21 229 -45 335 -94
293 -133 487 -407 542 -764 27 -180 14 -480 -29 -637 -95 -349 -328 -584 -682
-686 -124 -36 -241 -43 -690 -44 l-440 0 -28 23 c-17 13 -32 38 -37 62 -6 24
-7 440 -3 1065 l6 1025 33 33 32 32 431 0 c330 0 454 -3 530 -15z"/>
</g>
</svg>
