<?xml version="1.0" encoding="UTF-8"?>
<svg xmlns="http://www.w3.org/2000/svg" xmlns:xlink="http://www.w3.org/1999/xlink" width="60px" height="60px" viewBox="0 0 60 60" version="1.1">
<g id="surface1">
<path fill="#676a7c" d="M 29.824219 0.0898438 C 13.386719 0.183594 0.128906 13.5625 0.175781 30 C 0.226562 46.4375 13.5625 59.734375 30 59.734375 C 46.4375 59.734375 59.773438 46.4375 59.824219 30 C 59.871094 13.5625 46.613281 0.183594 30.175781 0.0898438 Z M 29.824219 15.265625 C 37.195312 15.363281 43.105469 21.390625 43.058594 28.761719 C 43.011719 36.136719 37.019531 42.085938 29.648438 42.085938 C 22.273438 42.085938 16.285156 36.136719 16.234375 28.761719 C 16.1875 21.390625 22.097656 15.363281 29.46875 15.265625 Z M 10.058594 50.648438 C 13.234375 46.53125 17.175781 44.46875 21.882812 44.46875 L 38.117188 44.46875 C 42.824219 44.46875 46.765625 46.53125 49.941406 50.648438 C 38.769531 61.269531 21.230469 61.269531 10.058594 50.648438 "/>
</g>
</svg>
